<?xml version="1.0" standalone="no"?>
<!DOCTYPE svg PUBLIC "-//W3C//DTD SVG 20010904//EN"
 "http://www.w3.org/TR/2001/REC-SVG-20010904/DTD/svg10.dtd">
<svg version="1.0" xmlns="http://www.w3.org/2000/svg"
 width="538.000000pt" height="527.000000pt" viewBox="0 0 538.000000 527.000000"
 preserveAspectRatio="xMidYMid meet">
<metadata>
Created by potrace 1.14, written by Peter Selinger 2001-2017
</metadata>
<g transform="translate(0.000000,527.000000) scale(0.100000,-0.100000)"
fill="#000000" stroke="none">
<path d="M2027 5076 c-172 -62 -164 -315 11 -366 25 -8 211 -10 578 -8 l540 3
43 28 c55 37 96 119 88 178 -8 59 -39 110 -86 144 l-43 30 -546 2 c-446 2
-554 0 -585 -11z"/>
<path d="M885 5003 c-227 -30 -412 -194 -471 -418 -11 -41 -14 -404 -14 -1980
0 -1694 2 -1938 15 -1990 48 -190 189 -336 385 -401 51 -17 116 -19 962 -22
l908 -3 -118 116 -117 115 -772 0 c-754 0 -774 0 -827 21 -73 27 -148 96 -183
167 l-28 57 0 1935 0 1935 28 56 c36 74 108 140 180 168 53 19 77 21 278 21
236 0 271 6 303 51 21 30 21 98 0 128 -32 45 -67 51 -291 50 -114 -1 -221 -4
-238 -6z"/>
<path d="M3733 4990 c-17 -10 -37 -28 -42 -39 -16 -29 -13 -93 5 -119 31 -45
45 -47 344 -52 l285 -5 63 -34 c73 -40 124 -96 155 -173 22 -52 22 -61 25
-741 l3 -687 57 -30 c31 -16 77 -43 102 -59 25 -17 48 -31 53 -31 4 0 7 332 7
738 0 697 -1 743 -19 814 -45 174 -147 301 -302 377 -111 54 -164 61 -459 61
-225 0 -248 -2 -277 -20z"/>
<path d="M1414 3987 c-53 -20 -100 -58 -130 -106 -23 -37 -29 -59 -32 -116 -3
-61 0 -77 25 -125 35 -68 94 -115 166 -129 37 -8 389 -11 1182 -9 1080 3 1132
4 1165 22 48 25 98 74 120 116 63 122 10 278 -114 336 l-51 24 -1150 -1 c-854
0 -1158 -4 -1181 -12z"/>
<path d="M1430 3031 c-73 -23 -136 -79 -165 -148 -18 -42 -19 -121 -3 -174 15
-51 69 -114 122 -142 40 -22 48 -22 491 -24 l450 -2 54 75 c100 138 275 306
421 406 24 16 -13 17 -660 17 -377 -1 -696 -4 -710 -8z"/>
<path d="M3621 2919 c-259 -29 -524 -143 -726 -312 -33 -28 -69 -60 -80 -71
-218 -228 -341 -463 -390 -750 -20 -116 -19 -336 1 -457 119 -712 790 -1214
1509 -1128 319 38 602 181 830 421 178 186 290 399 350 663 22 94 31 359 16
455 -69 454 -346 842 -739 1039 -230 115 -522 168 -771 140z m1056 -760 c79
-38 115 -139 79 -222 -8 -18 -250 -267 -567 -584 -489 -487 -559 -553 -596
-563 -45 -11 -79 -7 -128 18 -41 20 -630 607 -660 658 -65 108 4 247 129 261
65 8 118 -22 214 -120 44 -45 153 -154 241 -242 l161 -160 473 472 c298 298
485 478 507 487 49 21 96 20 147 -5z"/>
</g>
</svg>
