<?xml version="1.0" standalone="no"?>
<!DOCTYPE svg PUBLIC "-//W3C//DTD SVG 20010904//EN"
 "http://www.w3.org/TR/2001/REC-SVG-20010904/DTD/svg10.dtd">
<svg version="1.0" xmlns="http://www.w3.org/2000/svg"
 width="583.000000pt" height="529.000000pt" viewBox="0 0 583.000000 529.000000"
 preserveAspectRatio="xMidYMid meet">
<metadata>
Created by potrace 1.14, written by Peter Selinger 2001-2017
</metadata>
<g transform="translate(0.000000,529.000000) scale(0.100000,-0.100000)"
fill="#000000" stroke="none">
<path d="M1377 5039 c-26 -15 -916 -1085 -927 -1115 -6 -16 -10 -634 -10
-1658 0 -1778 -3 -1682 56 -1798 59 -116 194 -219 322 -247 38 -8 614 -11
2075 -11 2227 0 2075 -4 2198 61 70 38 157 126 193 197 59 116 56 20 56 1798
0 1053 -4 1642 -10 1659 -5 14 -144 186 -308 383 -164 196 -367 439 -450 539
-84 100 -161 187 -172 193 -27 14 -2998 13 -3023 -1z m2929 -187 c6 -4 171
-199 368 -434 l356 -428 -660 -2 -659 -3 -23 -23 c-23 -22 -23 -28 -28 -290
-6 -303 -11 -324 -88 -394 -76 -69 -80 -69 -708 -66 -550 3 -560 3 -599 24
-55 30 -94 70 -119 124 -19 41 -21 68 -26 312 -5 262 -5 268 -28 290 l-23 23
-659 3 -660 2 363 435 362 435 1410 0 c775 0 1415 -4 1421 -8z m-2376 -1267
c0 -190 2 -209 24 -270 43 -119 120 -203 236 -259 l65 -31 630 0 c630 0 630 0
685 22 111 46 208 142 252 253 20 50 23 76 26 273 l3 217 645 0 644 0 0 -460
c0 -253 -3 -459 -7 -459 -5 1 -326 1 -714 0 l-706 -1 -26 -26 -25 -25 -4 -267
c-3 -256 -4 -269 -27 -315 -26 -53 -67 -91 -126 -118 -37 -17 -80 -19 -616
-19 l-575 0 -55 28 c-66 33 -113 93 -128 162 -6 29 -11 155 -11 289 l0 237
-28 27 -28 27 -712 0 -712 0 0 460 0 460 645 0 645 0 0 -205z m1 -1130 c6
-243 10 -263 75 -361 60 -91 144 -148 261 -178 90 -23 1159 -24 1248 -1 131
35 230 117 292 243 l38 76 3 223 4 223 644 0 644 0 0 -495 0 -495 -715 -2
-714 -3 -23 -23 c-22 -22 -23 -28 -28 -290 -5 -226 -8 -273 -23 -307 -23 -50
-70 -100 -122 -128 -40 -22 -44 -22 -625 -22 -551 0 -587 1 -620 19 -49 26
-98 74 -123 121 -20 37 -22 58 -27 312 -5 267 -5 273 -28 295 l-23 23 -714 3
-715 2 0 495 0 495 643 -2 642 -3 6 -220z m1 -1188 l3 -223 38 -76 c45 -92
122 -167 217 -212 l65 -31 636 0 635 0 75 37 c93 46 168 122 212 215 l32 68 3
223 3 222 645 0 644 0 0 -429 c0 -475 0 -478 -65 -557 -21 -25 -59 -54 -93
-71 l-57 -28 -2035 0 -2035 0 -57 28 c-34 17 -72 46 -93 71 -65 79 -65 82 -65
557 l0 429 644 0 645 0 3 -223z"/>
</g>
</svg>
