<?xml version="1.0" standalone="no"?>
<!DOCTYPE svg PUBLIC "-//W3C//DTD SVG 20010904//EN"
 "http://www.w3.org/TR/2001/REC-SVG-20010904/DTD/svg10.dtd">
<svg version="1.0" xmlns="http://www.w3.org/2000/svg"
 width="565.000000pt" height="434.000000pt" viewBox="0 0 565.000000 434.000000"
 preserveAspectRatio="xMidYMid meet">
<metadata>
Created by potrace 1.14, written by Peter Selinger 2001-2017
</metadata>
<g transform="translate(0.000000,434.000000) scale(0.100000,-0.100000)"
fill="#000000" stroke="none">
<path d="M5075 3789 c-11 -6 -86 -77 -167 -157 l-146 -145 -64 57 c-86 77
-119 84 -154 32 -15 -24 -15 -28 1 -52 29 -44 177 -184 201 -190 18 -5 35 4
71 34 91 76 332 330 339 357 5 20 1 32 -17 51 -25 27 -35 29 -64 13z"/>
<path d="M1138 3649 c-59 -14 -155 -66 -202 -110 -51 -46 -99 -132 -121 -215
-34 -130 -28 -390 11 -527 51 -172 173 -303 314 -336 76 -18 160 -19 223 -5
233 55 351 242 364 579 14 359 -93 552 -338 610 -70 16 -192 18 -251 4z"/>
<path d="M3357 3649 c-31 -18 -48 -71 -36 -112 11 -42 42 -67 82 -67 59 0 96
35 97 93 0 72 -82 121 -143 86z"/>
<path d="M3637 3640 c-34 -27 -44 -78 -23 -118 31 -60 99 -71 147 -23 83 83
-32 213 -124 141z"/>
<path d="M3934 3641 c-33 -20 -46 -56 -37 -103 7 -37 34 -59 82 -65 35 -5 44
-2 71 25 46 47 37 117 -19 147 -39 20 -59 19 -97 -4z"/>
<path d="M4211 3631 c-87 -81 29 -214 122 -141 51 40 44 126 -12 155 -44 22
-75 19 -110 -14z"/>
<path d="M3371 3361 c-14 -4 -32 -22 -44 -44 -16 -31 -17 -42 -7 -72 33 -101
180 -77 180 30 0 72 -54 107 -129 86z"/>
<path d="M3362 3070 c-28 -12 -55 -71 -46 -104 17 -69 116 -94 161 -42 23 27
30 76 17 111 -14 36 -83 54 -132 35z"/>
<path d="M3345 2765 c-37 -37 -37 -96 1 -135 35 -36 98 -35 130 3 33 39 33 99
-1 132 -34 35 -96 35 -130 0z"/>
<path d="M4581 2636 c-32 -34 -22 -57 66 -147 l73 -76 -74 -80 c-83 -91 -95
-114 -72 -147 34 -52 77 -34 185 78 l55 55 87 -84 c49 -47 93 -85 98 -85 5 0
23 14 40 31 38 38 35 46 -61 145 -37 39 -68 74 -68 79 0 4 34 43 75 86 84 88
96 125 51 154 -37 24 -66 11 -142 -66 -38 -38 -73 -69 -79 -69 -6 0 -31 21
-55 46 -56 58 -118 104 -140 104 -9 0 -27 -11 -39 -24z"/>
<path d="M2186 2474 c-18 -19 -26 -37 -26 -63 0 -48 22 -78 69 -92 48 -14 92
6 111 50 39 94 -82 176 -154 105z"/>
<path d="M2475 2475 c-50 -49 -22 -145 45 -160 60 -13 128 47 115 103 -16 77
-108 109 -160 57z"/>
<path d="M2771 2483 c-51 -42 -41 -127 18 -158 62 -32 131 10 131 80 0 62 -29
95 -85 95 -26 0 -51 -7 -64 -17z"/>
<path d="M3067 2489 c-27 -16 -49 -67 -42 -98 15 -71 107 -101 159 -52 36 34
37 101 1 136 -26 27 -84 34 -118 14z"/>
<path d="M3347 2482 c-23 -26 -38 -72 -31 -96 18 -59 81 -88 133 -62 89 47 57
176 -44 176 -27 0 -47 -6 -58 -18z"/>
<path d="M3631 2479 c-46 -49 -34 -123 23 -154 95 -51 183 70 107 146 -37 37
-99 41 -130 8z"/>
<path d="M3922 2478 c-30 -34 -36 -71 -17 -111 25 -53 72 -69 124 -43 54 28
66 97 25 145 -21 26 -33 31 -68 31 -31 0 -48 -6 -64 -22z"/>
<path d="M4206 2469 c-37 -43 -34 -83 8 -125 37 -37 62 -42 105 -20 54 28 66
97 25 145 -21 26 -33 31 -69 31 -36 0 -48 -5 -69 -31z"/>
<path d="M1223 2299 c-103 -21 -116 -90 -44 -229 l29 -55 -40 -114 c-48 -141
-67 -180 -78 -160 -4 8 -47 135 -94 284 -48 148 -89 272 -92 274 -8 9 -345
-176 -444 -243 -75 -50 -130 -107 -157 -161 -22 -42 -27 -71 -35 -185 -4 -74
-7 -229 -6 -345 l3 -210 995 0 995 0 3 275 c4 389 -12 469 -116 561 -74 65
-260 178 -437 267 -80 40 -80 40 -91 19 -16 -30 -73 -199 -135 -397 -60 -191
-50 -192 -124 16 l-45 126 20 28 c52 73 73 157 50 200 -20 38 -97 62 -157 49z"/>
<path d="M3368 2209 c-35 -13 -64 -83 -50 -119 20 -53 71 -76 125 -58 36 13
57 44 57 86 0 46 -16 71 -55 88 -39 16 -40 16 -77 3z"/>
<path d="M3358 1915 c-31 -17 -52 -71 -42 -109 12 -51 83 -81 139 -60 21 8 45
56 45 89 0 39 -18 65 -55 81 -42 17 -53 17 -87 -1z"/>
<path d="M3363 1624 c-88 -44 -51 -174 51 -174 63 0 107 82 75 142 -9 17 -65
48 -86 48 -4 0 -22 -7 -40 -16z"/>
<path d="M4974 1494 c-16 -8 -59 -45 -96 -81 l-67 -67 -80 77 c-91 86 -127 98
-156 53 -15 -22 -15 -28 -1 -53 8 -15 44 -60 80 -99 l65 -71 -60 -59 c-103
-101 -118 -144 -64 -180 31 -20 51 -10 137 72 36 35 70 64 75 64 4 0 43 -31
85 -69 98 -88 113 -93 150 -52 35 39 32 46 -67 150 l-73 76 79 81 c83 86 96
116 62 146 -31 26 -39 27 -69 12z"/>
<path d="M3359 1335 c-32 -17 -52 -63 -43 -98 9 -37 59 -77 96 -77 19 0 39 10
59 29 78 79 -14 199 -112 146z"/>
<path d="M3660 1343 c-93 -37 -64 -182 37 -183 75 0 120 97 72 154 -24 27 -78
42 -109 29z"/>
<path d="M3942 1340 c-24 -10 -52 -64 -52 -100 0 -36 53 -80 95 -80 49 0 95
44 95 92 0 70 -71 114 -138 88z"/>
<path d="M4228 1333 c-55 -35 -60 -102 -13 -149 56 -56 155 -5 155 80 0 62
-87 105 -142 69z"/>
</g>
</svg>
