<?xml version="1.0" standalone="no"?>
<!DOCTYPE svg PUBLIC "-//W3C//DTD SVG 20010904//EN"
 "http://www.w3.org/TR/2001/REC-SVG-20010904/DTD/svg10.dtd">
<svg version="1.0" xmlns="http://www.w3.org/2000/svg"
 width="586.000000pt" height="508.000000pt" viewBox="0 0 586.000000 508.000000"
 preserveAspectRatio="xMidYMid meet">
<metadata>
Created by potrace 1.14, written by Peter Selinger 2001-2017
</metadata>
<g transform="translate(0.000000,508.000000) scale(0.100000,-0.100000)"
fill="#000000" stroke="none">
<path d="M1760 4564 c-43 -19 -67 -40 -89 -79 -14 -26 -17 -80 -21 -375 l-5
-345 -545 -5 c-497 -5 -548 -7 -581 -23 -40 -20 -70 -56 -87 -106 -19 -53 -16
-2342 2 -2394 18 -48 40 -73 91 -101 39 -20 51 -21 405 -21 354 0 366 1 405
21 49 27 70 49 90 97 12 30 15 92 15 367 l0 330 1430 0 1430 0 0 -321 c0 -357
3 -380 60 -440 54 -57 77 -60 462 -57 338 3 344 3 391 27 30 15 58 39 75 64
l27 41 3 1155 c2 841 0 1170 -8 1209 -12 54 -51 110 -94 135 -15 9 -167 13
-571 17 l-550 5 -5 346 -5 346 -27 40 c-16 24 -44 49 -70 62 l-44 21 -1075 0
c-934 -1 -1079 -3 -1109 -16z m2130 -491 l0 -308 -1020 0 -1020 0 0 308 0 307
1020 0 1020 0 0 -307z m1230 -1632 c0 -1011 -2 -1119 -16 -1125 -9 -3 -141 -6
-294 -6 -153 0 -285 3 -294 6 -14 5 -16 51 -16 410 l0 404 -1630 0 -1630 0 -2
-407 -3 -408 -305 0 -305 0 -3 1123 -2 1122 2250 0 2250 0 0 -1119z"/>
<path d="M966 3346 c-46 -17 -99 -66 -121 -112 -55 -116 33 -269 163 -282 166
-16 277 148 202 298 -43 84 -155 129 -244 96z"/>
<path d="M1652 1168 l3 -553 24 -34 c14 -19 46 -44 76 -57 l53 -24 1073 2
1074 3 42 22 c26 15 52 39 68 66 l25 44 0 541 0 542 -100 0 -100 0 0 -510 0
-510 -1020 0 -1020 0 0 510 0 510 -100 0 -100 0 2 -552z"/>
<path d="M2342 1508 c-13 -13 -16 -47 -6 -72 6 -14 74 -16 670 -16 l664 0 10
25 c10 26 4 55 -14 67 -6 4 -304 8 -661 8 -493 0 -654 -3 -663 -12z"/>
<path d="M2342 1098 c-7 -7 -12 -24 -12 -38 0 -14 5 -31 12 -38 9 -9 170 -12
665 -12 l653 0 16 25 c15 23 15 27 0 50 l-16 25 -653 0 c-495 0 -656 -3 -665
-12z"/>
</g>
</svg>
