<?xml version="1.0" standalone="no"?>
<!DOCTYPE svg PUBLIC "-//W3C//DTD SVG 20010904//EN"
 "http://www.w3.org/TR/2001/REC-SVG-20010904/DTD/svg10.dtd">
<svg version="1.0" xmlns="http://www.w3.org/2000/svg"
 width="543.000000pt" height="500.000000pt" viewBox="0 0 543.000000 500.000000"
 preserveAspectRatio="xMidYMid meet">
<metadata>
Created by potrace 1.14, written by Peter Selinger 2001-2017
</metadata>
<g transform="translate(0.000000,500.000000) scale(0.100000,-0.100000)"
fill="#000000" stroke="none">
<path d="M690 4690 c-102 -13 -198 -58 -287 -134 -49 -43 -127 -156 -149 -217
-31 -88 -35 -296 -29 -1374 l7 -1060 37 -80 c51 -107 105 -173 191 -230 116
-77 146 -85 369 -95 108 -5 639 -10 1181 -10 542 0 994 -3 1005 -6 14 -3 27
-23 39 -57 35 -99 77 -152 194 -244 l23 -18 -93 -135 c-219 -321 -377 -563
-373 -570 2 -4 28 -3 57 1 305 49 432 68 439 64 4 -3 49 -67 100 -143 51 -75
115 -168 143 -206 42 -59 51 -66 58 -50 4 10 39 170 78 354 87 414 97 461 103
467 3 2 24 -1 47 -7 63 -17 151 -19 232 -5 40 7 73 12 74 12 1 -1 40 -189 88
-417 48 -228 89 -416 91 -418 6 -6 84 98 172 229 47 70 97 142 112 158 l26 31
149 -25 c81 -14 193 -31 247 -38 l99 -14 -22 36 c-36 59 -125 193 -291 438
-86 127 -157 235 -156 240 0 4 26 26 58 49 103 74 175 215 188 371 6 76 7 79
55 132 171 188 170 476 -4 666 -44 48 -47 56 -53 121 -13 147 -57 248 -149
340 -85 85 -165 121 -302 138 -99 12 -107 15 -142 48 -79 76 -217 138 -309
138 -26 0 -53 4 -59 8 -9 5 -13 152 -17 532 -5 579 -5 582 -70 704 -36 69
-133 170 -201 210 -26 15 -76 38 -111 51 l-65 25 -1363 -1 c-749 -1 -1387 -5
-1417 -9z m2696 -139 c79 -7 113 -15 159 -37 78 -38 152 -114 193 -195 l32
-66 0 -560 0 -559 -44 -21 c-24 -12 -67 -42 -95 -67 -55 -49 -54 -49 -181 -65
-208 -26 -363 -166 -417 -373 -10 -38 -20 -68 -24 -68 -3 0 -60 62 -125 137
-199 230 -247 277 -316 309 -54 25 -75 29 -148 29 -151 -1 -192 -29 -405 -279
l-150 -175 -100 104 c-66 69 -115 111 -145 124 -55 25 -148 27 -213 5 -59 -20
-135 -97 -404 -409 -273 -317 -293 -341 -293 -349 0 -3 476 -6 1058 -6 l1058
0 18 -75 c22 -95 63 -176 121 -242 25 -28 45 -56 45 -62 0 -14 -2227 -15
-2312 -2 -119 20 -219 94 -292 215 l-36 60 0 1163 0 1163 32 65 c56 116 119
173 242 220 l61 24 1290 0 c710 0 1335 -4 1391 -8z m677 -1535 c62 -19 137
-75 177 -133 l33 -48 116 0 c107 0 121 -2 172 -28 63 -30 125 -92 161 -159 20
-38 23 -58 24 -161 l0 -117 59 -48 c40 -32 70 -68 94 -112 34 -61 36 -71 36
-155 0 -82 -3 -97 -33 -157 -30 -61 -71 -108 -131 -150 -23 -16 -24 -22 -25
-135 -1 -108 -3 -122 -28 -168 -73 -136 -202 -204 -357 -191 l-76 7 -64 -66
c-36 -36 -85 -78 -110 -93 -42 -25 -55 -27 -151 -27 -95 0 -110 3 -155 27 -60
32 -91 58 -138 118 l-36 46 -68 -6 c-178 -15 -302 50 -370 195 -25 54 -28 71
-28 165 l0 105 -76 75 c-87 86 -110 137 -110 243 0 124 41 208 139 284 l49 38
-1 110 c-1 99 2 115 26 167 32 69 96 134 163 168 44 22 63 25 167 26 l118 0
29 41 c42 58 114 114 174 134 63 22 157 24 220 5z m-1589 -147 c22 -6 60 -31
89 -57 47 -44 354 -391 371 -420 5 -9 -10 -51 -40 -112 -46 -91 -51 -98 -84
-104 -80 -14 -1780 -1 -1780 14 0 7 191 227 320 369 41 45 87 89 102 97 67 35
118 8 243 -132 119 -132 122 -134 151 -134 48 0 91 38 263 234 172 196 202
225 256 244 40 14 62 14 109 1z m1072 -1765 c17 -2 45 -19 64 -39 30 -31 32
-38 27 -82 -6 -50 -98 -505 -104 -512 -7 -9 -46 36 -103 120 -34 49 -68 89
-77 89 -9 0 -60 -7 -114 -16 -162 -25 -162 -38 -6 194 194 288 171 262 231
256 28 -3 65 -7 82 -10z m1027 -86 c113 -163 237 -350 237 -359 0 -13 -36 -11
-151 7 -119 19 -106 26 -196 -105 -32 -47 -63 -86 -69 -88 -10 -3 -40 118
-102 419 l-29 136 41 41 41 41 82 0 82 0 64 -92z"/>
<path d="M1060 4133 c-344 -120 -375 -582 -50 -737 60 -29 73 -31 170 -31 99
0 110 2 172 33 78 38 149 110 187 192 23 49 26 67 26 165 0 102 -2 114 -29
168 -36 71 -105 144 -170 180 -82 45 -223 59 -306 30z m227 -154 c54 -26 120
-102 134 -154 13 -47 5 -144 -15 -183 -19 -36 -83 -96 -125 -117 -19 -9 -60
-19 -90 -22 -101 -9 -205 56 -246 153 -19 46 -19 144 -1 189 42 100 126 155
235 155 45 0 78 -6 108 -21z"/>
<path d="M3855 2724 c-208 -32 -413 -181 -502 -364 -68 -140 -90 -302 -62
-456 23 -127 134 -302 250 -394 111 -87 272 -140 428 -140 101 0 141 7 231 43
141 54 269 163 343 288 77 131 114 325 89 461 -46 241 -237 461 -462 532 -75
24 -246 40 -315 30z m195 -144 c101 -16 202 -71 286 -154 247 -247 204 -635
-91 -832 -152 -101 -370 -110 -538 -21 -73 38 -186 151 -225 225 -164 309 11
693 354 776 72 18 129 19 214 6z"/>
<path d="M3886 2331 c-37 -72 -69 -131 -72 -131 -17 0 -269 -42 -272 -45 -2
-2 42 -51 98 -109 l102 -105 -25 -140 c-13 -78 -23 -141 -20 -141 2 0 61 29
133 65 l129 65 126 -66 c69 -37 128 -64 131 -61 2 2 -5 69 -18 147 l-22 144
104 97 c57 54 102 100 100 103 -3 2 -67 13 -143 24 -77 11 -140 22 -141 24 -2
2 -31 57 -65 123 -35 66 -67 124 -71 129 -5 5 -38 -51 -74 -123z m102 -176
c23 -47 41 -60 105 -70 20 -3 37 -9 37 -13 0 -3 -18 -25 -40 -47 l-40 -41 10
-54 c6 -29 8 -55 6 -58 -3 -2 -29 7 -59 21 l-53 24 -45 -23 c-24 -13 -48 -23
-53 -24 -5 0 -6 27 -2 59 7 58 6 61 -29 99 -19 22 -35 42 -35 45 0 3 17 9 38
12 65 12 71 15 98 66 15 27 30 49 34 49 3 0 16 -20 28 -45z"/>
</g>
</svg>
